<?xml version="1.0" encoding="UTF-8" standalone="no"?> <!-- Created with Vectornator for iOS (http://vectornator.io/) --><!DOCTYPE svg PUBLIC "-//W3C//DTD SVG 1.1//EN" "http://www.w3.org/Graphics/SVG/1.1/DTD/svg11.dtd">
<svg height="100%" style="fill-rule:nonzero;clip-rule:evenodd;stroke-linecap:round;stroke-linejoin:round;" xmlns:xlink="http://www.w3.org/1999/xlink" xmlns="http://www.w3.org/2000/svg" xml:space="preserve" width="100%" xmlns:vectornator="http://vectornator.io" version="1.1" viewBox="0 0 3000 3000">
<metadata>
<vectornator:setting key="DimensionsVisible" value="1"/>
<vectornator:setting key="PencilOnly" value="0"/>
<vectornator:setting key="SnapToPoints" value="1"/>
<vectornator:setting key="OutlineMode" value="0"/>
<vectornator:setting key="CMYKEnabledKey" value="0"/>
<vectornator:setting key="RulersVisible" value="1"/>
<vectornator:setting key="SnapToEdges" value="1"/>
<vectornator:setting key="GuidesVisible" value="1"/>
<vectornator:setting key="DisplayWhiteBackground" value="0"/>
<vectornator:setting key="doHistoryDisabled" value="0"/>
<vectornator:setting key="SnapToGuides" value="1"/>
<vectornator:setting key="TimeLapseWatermarkDisabled" value="0"/>
<vectornator:setting key="Units" value="Pixels"/>
<vectornator:setting key="DynamicGuides" value="1"/>
<vectornator:setting key="IsolateActiveLayer" value="0"/>
<vectornator:setting key="SnapToGrid" value="0"/>
</metadata>
<defs>
<radialGradient cx="837.559" r="1715.62" id="RadialGradient" gradientUnits="userSpaceOnUse" gradientTransform="matrix(1 0 0 1 0 0)" cy="1999.48">
<stop stop-color="#c058ff" offset="0"/>
<stop stop-color="#ff5858" offset="1"/>
</radialGradient>
</defs>
<g id="Ebene 1" vectornator:layerName="Ebene 1">
<path d="M309.659-3.01794e-05L2690.34-3.01794e-05C2861.36-3.01794e-05+3000+138.639+3000+309.66L3000+2690.34C3000+2861.36+2861.36+3000+2690.34+3000L309.659+3000C138.639+3000-1.12467e-05+2861.36-1.12467e-05+2690.34L-1.12467e-05+309.66C-1.12467e-05+138.639+138.639-3.01794e-05+309.659-3.01794e-05Z" opacity="1" fill="#000000"/>
<g opacity="1">
<path d="M1572.13+1835.25C1536.67+1904.7+1485.81+1961.71+1419.57+2006.27C1353.33+2050.84+1271.37+2080.84+1173.68+2096.27C1102.89+2107.46+1036.09+2107.13+973.272+2095.29C910.455+2083.45+854.678+2061.06+805.941+2028.13C757.205+1995.2+716.553+1953.73+683.985+1903.74C651.417+1853.74+629.876+1795.47+619.363+1728.93C605.942+1643.98+608.412+1560.88+626.772+1479.62C645.132+1398.36+677.39+1324.7+723.546+1258.63C769.702+1192.57+828.322+1136.51+899.405+1090.45C970.488+1044.4+1052.04+1014.1+1144.07+999.559C1241.76+984.125+1324.38+988.122+1391.93+1011.55C1459.48+1034.98+1515.61+1077.99+1560.32+1140.58C1599.81+1069.04+1653.57+1009.76+1721.6+962.73C1789.62+915.704+1867.53+885.257+1955.3+871.389C2016.18+861.77+2073.8+861.374+2128.16+870.199C2182.52+879.023+2231.5+897.405+2275.09+925.344C2318.69+953.283+2355.13+991.059+2384.42+1038.67C2413.71+1086.28+2433.72+1144.07+2444.46+1212.03C2448.04+1234.68+2450.89+1266.52+2453.02+1307.54C2455.14+1348.56+2454.76+1387.43+2451.85+1424.17L1695.83+1543.62C1695.54+1550.92+1696.06+1558.82+1697.4+1567.31C1702.77+1601.29+1714.41+1631.38+1732.34+1657.57C1750.26+1683.76+1772.88+1705.22+1800.19+1721.94C1827.5+1738.67+1858.39+1750.48+1892.85+1757.36C1927.32+1764.25+1963.66+1764.68+2001.89+1758.64C2067.01+1748.35+2120.68+1727.54+2162.89+1696.2C2205.1+1664.86+2241.37+1625.76+2271.69+1578.88L2435.11+1690.19C2330.58+1846.01+2187.71+1938.24+2006.49+1966.87C1914.47+1981.41+1830.84+1977.94+1755.62+1956.45C1680.39+1934.96+1619.23+1894.56+1572.13+1835.25ZM2219.8+1277.99C2219.65+1267.86+2219.26+1258.49+2218.62+1249.88C2217.99+1241.28+2217+1232.73+2215.66+1224.23C2206.94+1169.02+2180.09+1125.37+2135.11+1093.3C2090.14+1061.22+2032.26+1050.78+1961.47+1061.96C1917.58+1068.9+1879.17+1082.95+1846.24+1104.11C1813.3+1125.28+1785.7+1150.32+1763.42+1179.23C1741.14+1208.14+1723.86+1238.81+1711.57+1271.23C1699.27+1303.64+1692.42+1333.75+1691.01+1361.54L2219.8+1277.99ZM1453.61+1429.52C1441.53+1353.07+1408.22+1293.76+1353.67+1251.59C1299.12+1209.42+1231.49+1194.71+1150.79+1207.46C1099.83+1215.51+1054.49+1233.92+1014.77+1262.69C975.057+1291.45+942.535+1326.7+917.204+1368.43C891.872+1410.16+874.161+1456.5+864.069+1507.43C853.977+1558.36+853.181+1610.73+861.681+1664.53C873.76+1740.98+906.366+1800.4+959.5+1842.79C1012.63+1885.19+1080.26+1899.9+1162.37+1886.92C1213.34+1878.87+1259.09+1860.76+1299.62+1832.59C1340.16+1804.42+1373.09+1769.47+1398.42+1727.74C1423.75+1686.01+1441.41+1639.32+1451.39+1587.68C1461.37+1536.04+1462.11+1483.32+1453.61+1429.52Z" opacity="1" fill="url(#RadialGradient)"/>
</g>
</g>
</svg>
